<svg xmlns="http://www.w3.org/2000/svg" width="20" height="20" viewBox="0 0 20 20">
  <path d="M10,2.84217094e-14 L18.0155642,3.85214008 L20,12.5680934 L14.4747082,19.5330739 L5.52529183,19.5330739 L0,12.5680934 L1.9844358,3.85214008 L10,2.84217094e-14 Z M8.73703752,11.9887387 L5.50002643,17.8266121 L5.69359005,17.9454377 L9.24357468,12.3405868 L9.12675639,12.303816 C8.9427953,12.235281 8.81257692,12.1304547 8.73703752,11.9887387 L8.73703752,11.9887387 Z M9.41794822,12.4136619 L9.12317604,12.8704037 L8.94655542,17.7741652 L9.15575873,17.7814457 L9.56248052,12.6452911 L9.41794822,12.4136619 Z M9.95216943,11.879216 C9.88484686,12.1216311 9.73164083,12.2054922 9.57497429,12.2828817 L9.57497429,12.2828817 L12.8851054,17.6119259 L13.027121,17.5160654 Z M9.31615542,11.193092 C9.03876062,11.193092 8.81388771,11.4179649 8.81388771,11.6953597 C8.81388771,11.9727545 9.03876062,12.1976274 9.31615542,12.1976274 C9.59355021,12.1976274 9.81842312,11.9727545 9.81842312,11.6953597 C9.81842312,11.4179649 9.59355021,11.193092 9.31615542,11.193092 Z M3.1211309,9.9055142 L3.02189978,9.92955798 L3.00449482,10.0328084 C2.95126943,10.5694122 3.38651687,11.3860377 3.47693382,11.3464329 L3.47693382,11.3464329 L3.58358032,11.3065247 L3.56383289,11.2878616 C3.4550218,11.1728885 3.06291544,10.6215853 3.1211309,9.9055142 L3.1211309,9.9055142 Z M3.70728963,9.10554407 L3.61242232,9.11052829 C3.43149783,9.13319784 3.30553767,9.22769324 3.27240445,9.31516089 L3.27240445,9.31516089 L3.43019452,9.80560895 L3.25910172,9.86281965 L3.23603764,9.94321403 C3.15605547,10.3804988 3.58832728,11.3143193 3.73098888,11.2525947 L3.73098888,11.2525947 L5.92818538,10.5722683 L5.89817403,10.4954447 C5.79084464,10.2302678 5.54181766,9.66546745 5.52802507,9.14478716 L5.52802507,9.14478716 L3.9817632,9.63510039 L3.81026592,9.11472121 L3.70728963,9.10554407 Z M9.99576281,10.0017792 L8.14286417,10.5880428 L8.33840522,10.8972862 L9.0170239,10.6790946 L9.0170239,11.1087366 L9.09735556,11.0759258 C9.25893004,11.0166044 9.42664122,10.999721 9.6125455,11.1087366 L9.6125455,11.1087366 L9.6125455,10.4951484 L9.99576281,10.3734465 L9.99576281,10.0017792 Z M12.1979478,6.66450331 L5.69853363,8.71793152 L5.67239334,8.82096674 C5.53004252,9.5770631 6.2198382,11.0295474 6.41198207,10.9445648 L6.41198207,10.9445648 L12.9589445,8.90286634 L12.9134602,8.81237214 C12.6806341,8.36234119 12.3714506,7.93000355 12.1979478,6.66450331 L12.1979478,6.66450331 Z M15.7228101,5 L12.4075107,6.02974767 L12.3710036,6.11677542 C12.089204,6.95546364 13.0475181,9.24372617 13.4222928,9.15332607 L13.4222928,9.15332607 L16.7157955,8.11427549 L16.7499507,8.03614248 C16.9616207,7.39219545 16.3326759,5.23875341 15.7228101,5 L15.7228101,5 Z M15.6980224,5.37162645 C15.8041614,5.33789411 16.0736742,5.88783849 16.2999961,6.5999616 C16.5263179,7.31208471 16.6237453,7.91672002 16.5176063,7.95045236 C16.4114673,7.9841847 16.1419545,7.43424032 15.9156326,6.72211721 C15.6893108,6.0099941 15.5918834,5.40535879 15.6980224,5.37162645 Z"/>
</svg>
