<?xml version="1.0" standalone="no"?>
<svg xmlns="http://www.w3.org/2000/svg" viewBox="0 0 24 24" preserveAspectRatio="xMidYMid meet" focusable="false" style="pointer-events: none; display: block; width: 100%; height: 100%;"><g>   <g fill="none" fill-rule="evenodd">     <polygon fill="#000000" points="16 12 15.158 13 8.842 13 8 12 8.842 11 15.158 11"/>     <path fill="#000000" d="M2.20121951 11.6729131C1.93292683 11.8319137 1.93292683 12.0306644 2.20121951 12.2691652L6.15853659 15.846678C6.42682927 16.0851789 6.71747967 16.0454287 7.03048781 15.7274276L7.70121951 15.1311754C7.8800813 14.8926746 7.8800813 14.6939239 7.70121951 14.5349233L4.88414634 12.0306644 7.70121951 9.52640545C8.01422764 9.2879046 8.08130081 9.08915389 7.90243903 8.93015332L7.09756097 8.21465077C6.82926829 7.97614991 6.58333333 7.93639977 6.3597561 8.09540034L2.20121951 11.6729131zM21.8271078 11.7475936C22.0960512 11.9073084 22.0512273 12.1069519 21.6926361 12.3465241L17.6584845 15.8203209C17.3895411 16.059893 17.1205977 16.059893 16.8516542 15.8203209L16.1792956 15.2213904C16 14.9818182 16 14.7821747 16.1792956 14.6224599L19.0032017 12.1069519 16.1792956 9.59144385C16 9.43172905 15.9551761 9.27201426 16.0448239 9.11229946L16.9861259 8.27379679C17.2550694 7.9543672 17.5240128 7.9144385 17.7929563 8.1540107L21.8271078 11.7475936z"/>   </g> </g></svg>
