<svg viewBox="0 0 24 24" preserveAspectRatio="xMidYMid meet" focusable="false" style="pointer-events: none; display: block; width: 100%; height: 100%;">
<path d="M2.20122 12.2692C1.93293 12.0307 1.93293 11.8319 2.20122 11.6729L6.35976 8.0954C6.58333 7.9364 6.82927 7.97615 7.09756 8.21465L7.90244 8.93015C8.0813 9.08915 8.01423 9.2879 7.70122 9.52641L4.88415 12.0307L7.70122 14.5349C7.88008 14.6939 7.88008 14.8927 7.70122 15.1312L7.03049 15.7274C6.71748 16.0454 6.42683 16.0852 6.15854 15.8467L2.20122 12.2692Z" />
<path d="M21.6926 12.3465C22.0512 12.107 22.0961 11.9073 21.8271 11.7476L17.793 8.15401C17.524 7.91444 17.2551 7.95437 16.9861 8.2738L16.0448 9.1123C15.9552 9.27201 16 9.43173 16.1793 9.59144L19.0032 12.107L16.1793 14.6225C16 14.7822 16 14.9818 16.1793 15.2214L16.8517 15.8203C17.1206 16.0599 17.3895 16.0599 17.6585 15.8203L21.6926 12.3465Z" />
<path d="M15.158 13L16 12L15.158 11H8.842L8 12L8.842 13H15.158Z" />
</svg>
