<svg width="24px" height="24px" viewBox="0 0 24 24" fill="#000000">
    <path d="M20.9317767,7.10490066 C20.8875907,6.95236203 20.7832674,6.8213245 20.6386023,6.74498896 L11.7774442,2.06869757 C11.6038814,1.97713024 11.3962512,1.97713024 11.2226442,2.06869757 L2.36153023,6.74503311 C2.2169093,6.82136865 2.11249767,6.95240618 2.06835581,7.10494481 C2.04953256,7.16309051 2.03954651,7.22454746 2.03954651,7.28750552 L2.03954651,16.6708609 C2.03954651,16.8906402 2.16110233,17.0924503 2.35552093,17.1952759 L11.222114,21.8870199 C11.3090721,21.9330684 11.4045581,21.9560265 11.5000884,21.9560265 C11.5956628,21.9560265 11.691193,21.9330243 11.778107,21.8870199 L20.6446558,17.1952759 C20.838986,17.0924062 20.960586,16.8906402 20.960586,16.6708609 L20.960586,7.28746137 C20.960586,7.22450331 20.9505558,7.16304636 20.9317767,7.10490066 Z M9.91137907,4.74211921 L11.344907,3.98353201 C11.4356209,3.93554084 11.5442302,3.93554084 11.6349442,3.98353201 L16.9238372,6.78216336 C17.0253326,6.83584989 17.0887395,6.9412362 17.0887395,7.05598234 C17.0886512,7.17068433 17.0250674,7.27598234 16.9235721,7.32962472 L15.356514,8.15655629 C15.3112233,8.1804415 15.261514,8.19240618 15.2118047,8.19240618 C15.1598419,8.19240618 15.1078791,8.1793819 15.0611302,8.15333333 L9.90567907,5.28635762 C9.80639302,5.23116998 9.74532791,5.12613687 9.74650376,5.01258278 C9.74771395,4.8990287 9.81094419,4.79527594 9.91137907,4.74211921 Z M11.4899698,19.5440618 C11.4899698,19.6526711 11.4329698,19.7533333 11.3398698,19.8093598 C11.2908233,19.8388521 11.2355023,19.8536865 11.1800488,19.8536865 C11.1302953,19.8536865 11.0804535,19.841766 11.0350302,19.8177483 L3.91785116,16.0516556 C3.8164,15.9980574 3.75299302,15.8927152 3.75299302,15.7780574 L3.75299302,8.37863135 C3.75299302,8.27011038 3.80990465,8.16949227 3.90291628,8.11346578 C3.99592791,8.05743929 4.1115186,8.05421634 4.20757907,8.10485651 L11.3247581,11.8607947 C11.426386,11.9143929 11.4899698,12.0198234 11.4899698,12.1346137 L11.4899698,19.5440618 L11.4899698,19.5440618 Z M13.0679419,9.36437086 L11.6346349,10.1207506 C11.5893442,10.1446358 11.5396349,10.1566004 11.4899256,10.1566004 C11.4402163,10.1566004 11.390507,10.1446358 11.3452163,10.1207506 L6.05623488,7.32962472 C5.95465116,7.27602649 5.89106742,7.17068433 5.89106742,7.05598234 C5.89106742,6.9412362 5.95443023,6.83584989 6.05592558,6.78216336 L7.62572326,5.95152318 C7.71842558,5.90238411 7.82973023,5.90362031 7.92146047,5.95456954 L13.0739512,8.81995585 C13.1732814,8.87523179 13.2343907,8.9803532 13.2331291,9.09395143 C13.2318721,9.20750552 13.1684651,9.31134658 13.0679419,9.36437086 Z M17.6961651,11.2428698 L15.7846767,12.2369095 C15.3864721,12.4439294 14.9851744,12.3300662 14.8882744,11.9826049 C14.7914628,11.6350552 15.0357674,11.1854305 15.4339721,10.9784106 L17.3455488,9.98437086 C17.7437535,9.77739514 18.1450512,9.89116998 18.2418628,10.2386755 C18.3387628,10.586181 18.0944581,11.0358057 17.6961651,11.2428698 Z" id="Shape"></path>
</svg>