<?xml version="1.0" encoding="UTF-8"?>
<svg width="1280" height="256" version="1.1" viewBox="0 0 1280 256" xmlns="http://www.w3.org/2000/svg">
  <g transform="matrix(1.5553 0 0 1.5553 -62.492 -17.331)" stroke-width=".75465">
    <path d="m95.883 71.303 3.0941 77.05 55.655-71.028a5.1241 5.1241 0 0 1 7.2446-0.83766l34.714 27.862-11.32-49.513z" fill="#4279f4"/>
    <path d="m100.9 162.49h49.369l-30.314-24.322z" fill="#0028aa"/>
    <path d="m159.48 87.732-33.205 42.366 35.378 28.382 33.559-42.079z" fill="#014bd1"/>
    <path d="m86.571 63.87 0.0075-0.0075 29.197-36.616-47.083 22.677-11.629 50.946z" fill="#bedcff"/>
    <path d="m57.713 116.51 31.273 39.212-2.9809-74.695z" fill="#6ca1ff"/>
    <path d="m176.19 46.083-45.022-21.681-28.02 35.137z" fill="#a1c3ff"/>
  </g>
  <g transform="matrix(4.5674 0 0 4.5674 177 -839.91)" stroke-miterlimit="10" stroke-width="2.4149">
    <path d="m24.719 229.67v-33.793h4.3317v17.666l15.455-17.666h4.8298l-13.123 14.867 14.338 18.919h-5.0788l-12.014-15.697-4.4072 5.0184v10.686zm30.201-7.388v-16.761h4.0978v16.897a3.5242 3.5242 0 0 0 1.7734 3.162 8.3012 8.3012 0 0 0 8.3012 0 3.5393 3.5393 0 0 0 1.7583-3.162v-16.897h4.0977v16.746a6.8522 6.8522 0 0 1-3.0941 5.9391 12.225 12.225 0 0 1-13.863 0 6.8447 6.8447 0 0 1-3.0714-5.924zm27.047 7.388v-36.223h4.0977v12.686a22.104 22.104 0 0 1 7.0333-1.3056 9.8859 9.8859 0 0 1 4.6788 1.0641 8.0823 8.0823 0 0 1 3.1544 2.8224 13.637 13.637 0 0 1 1.6829 3.8185 16.044 16.044 0 0 1 0.5509 4.211q0 6.3617-3.3054 9.652-3.3054 3.2903-10.429 3.2752zm4.0977-3.6752h3.4337q5.109 0 7.3352-2.2262 2.2262-2.2262 2.264-7.1767a10.724 10.724 0 0 0-1.5093-5.675 4.943 4.943 0 0 0-4.5279-2.43 18.662 18.662 0 0 0-6.9805 1.1622zm22.24-8.4445q0-5.8184 3.0865-9.2822a10.376 10.376 0 0 1 8.1502-3.4638q10.075 0 10.082 14.233h-17.221a9.2822 9.2822 0 0 0 2.1885 5.3354q1.9545 2.347 5.9617 2.3394a18.806 18.806 0 0 0 7.9616-1.5093v3.7732a20.934 20.934 0 0 1-7.4408 1.4112 14.965 14.965 0 0 1-5.8108-1.0339 10.044 10.044 0 0 1-3.9846-2.8375 12.233 12.233 0 0 1-2.264-4.06 15.727 15.727 0 0 1-0.70938-4.9052zm4.2411-1.5999h13.025a11.252 11.252 0 0 0-1.7885-5.3731 4.8599 4.8599 0 0 0-4.2411-2.0979 6.1881 6.1881 0 0 0-4.6864 2.0526 9.1086 9.1086 0 0 0-2.2941 5.4184z" fill="#4279f4" stroke="#4279f4"/>
    <path d="m134.69 209.21v-3.6902h3.7732v-5.7278a6.1429 6.1429 0 0 1 1.7432-4.5656 5.8787 5.8787 0 0 1 4.294-1.7206h5.9316v3.7129h-3.7732c-1.6678 0-2.7696 0.33959-3.2978 1.0112-0.52826 0.67164-0.79993 1.9244-0.79993 3.7732v3.5167h6.3843v3.6752h-6.3843v20.474h-4.1053v-20.451zm21.085 20.459v-36.223h4.0978v36.223zm14.452-2.9809a13.478 13.478 0 1 1 9.3048 3.6978 12.505 12.505 0 0 1-9.3048-3.6978zm2.8978-15.584a9.9312 9.9312 0 0 0 0 12.98 9.1086 9.1086 0 0 0 12.829 0 9.8784 9.8784 0 0 0 0-12.98 9.1086 9.1086 0 0 0-12.829 0zm22.79-5.5844h4.3392l5.5089 19.108 5.607-19.108h4.0449l5.5391 19.123 5.5618-19.123h4.3317l-7.5767 24.149h-4.6184l-5.1543-18.549-5.0939 18.549h-4.8826z" fill="#0028aa" stroke="#0028aa"/>
  </g>
</svg>
