<?xml version="1.0" encoding="UTF-8"?>
<svg width="256" height="256" version="1.1" viewBox="0 0 256 256" xmlns="http://www.w3.org/2000/svg">
 <g transform="matrix(.85002 0 0 .85002 10.306 11.309)" data-name="Layer 2">
  <g data-name="Layer 1">
   <path d="m95.9 62.15 4.1 102.1 73.75-94.12a6.79 6.79 0 0 1 9.6-1.11l46 36.92-15-65.61z" fill="#4279f4"/>
   <path d="m102.55 182.98h65.42l-40.17-32.23z" fill="#0028aa"/>
   <path d="m180.18 83.92-44 56.14 46.88 37.61 44.47-55.76z" fill="#014bd1"/>
   <path d="m83.56 52.3 0.01-0.01 38.69-48.52-62.39 30.05-15.41 67.51z" fill="#bedcff"/>
   <path d="m45.32 122.05 41.44 51.96-3.95-98.98z" fill="#6ca1ff"/>
   <path d="m202.31 28.73-59.66-28.73-37.13 46.56z" fill="#a1c3ff"/>
   <path d="m1.6 272v-44.78h5.74v23.41l20.48-23.41h6.4l-17.39 19.7 19 25.07h-6.73l-15.92-20.8-5.84 6.65v14.16zm40.02-9.79v-22.21h5.43v22.39a4.67 4.67 0 0 0 2.35 4.19 11 11 0 0 0 11 0 4.69 4.69 0 0 0 2.33-4.19v-22.39h5.43v22.19a9.08 9.08 0 0 1-4.1 7.87 16.2 16.2 0 0 1-18.37 0 9.07 9.07 0 0 1-4.07-7.85zm35.84 9.79v-48h5.43v16.81a29.29 29.29 0 0 1 9.32-1.73 13.1 13.1 0 0 1 6.2 1.41 10.71 10.71 0 0 1 4.18 3.74 18.07 18.07 0 0 1 2.23 5.06 21.26 21.26 0 0 1 0.73 5.58q0 8.43-4.38 12.79t-13.82 4.34zm5.43-4.87h4.55q6.77 0 9.72-2.95t3-9.51a14.21 14.21 0 0 0-2-7.52 6.55 6.55 0 0 0-6-3.22 24.73 24.73 0 0 0-9.25 1.54zm29.47-11.19q0-7.71 4.09-12.3a13.75 13.75 0 0 1 10.8-4.59q13.35 0 13.36 18.86h-22.82a12.3 12.3 0 0 0 2.9 7.07q2.59 3.11 7.9 3.1a24.92 24.92 0 0 0 10.55-2v5a27.74 27.74 0 0 1-9.86 1.87 19.83 19.83 0 0 1-7.7-1.37 13.31 13.31 0 0 1-5.28-3.76 16.21 16.21 0 0 1-3-5.38 20.84 20.84 0 0 1-0.94-6.5zm5.62-2.12h17.26a14.91 14.91 0 0 0-2.37-7.12 6.44 6.44 0 0 0-5.62-2.78 8.2 8.2 0 0 0-6.21 2.72 12.07 12.07 0 0 0-3.04 7.18z" fill="#4279f4" stroke="#4279f4" stroke-miterlimit="10" stroke-width="3.2"/>
   <path d="m147.32 244.89v-4.89h5v-7.59a8.14 8.14 0 0 1 2.31-6.05 7.79 7.79 0 0 1 5.69-2.28h7.86v4.92h-5c-2.21 0-3.67 0.45-4.37 1.34s-1.06 2.55-1.06 5v4.66h8.46v4.87h-8.46v27.13h-5.44v-27.1zm27.94 27.11v-48h5.43v48zm19.15-3.95a17.86 17.86 0 1 1 12.33 4.9 16.57 16.57 0 0 1-12.33-4.9zm3.84-20.65a13.16 13.16 0 0 0 0 17.2 12.07 12.07 0 0 0 17 0 13.09 13.09 0 0 0 0-17.2 12.07 12.07 0 0 0-17 0zm30.2-7.4h5.75l7.3 25.32 7.43-25.32h5.36l7.34 25.34 7.37-25.34h5.74l-10.04 32h-6.12l-6.83-24.58-6.75 24.58h-6.47z" fill="#0028aa" stroke="#0028aa" stroke-miterlimit="10" stroke-width="3.2"/>
  </g>
 </g>
</svg>
