<svg width="25" height="23" viewBox="0 0 25 23" fill="none" xmlns="http://www.w3.org/2000/svg">
<path d="M24.6551 11.5715C24.6551 9.90422 22.6097 8.3241 19.4739 7.34422C20.1975 4.08145 19.8759 1.48557 18.4587 0.654473C18.132 0.459536 17.7501 0.367185 17.333 0.367185V1.51122C17.5641 1.51122 17.7501 1.55739 17.9059 1.6446C18.5894 2.04476 18.8859 3.56842 18.6547 5.5281C18.5994 6.01035 18.509 6.51822 18.3984 7.03647C17.4134 6.79022 16.338 6.60035 15.2073 6.47722C14.5288 5.5281 13.8252 4.66622 13.1166 3.91215C14.7549 2.3577 16.2927 1.50609 17.338 1.50609V0.362061C15.956 0.362061 14.1469 1.36757 12.3175 3.11184C10.4882 1.37784 8.67912 0.382573 7.297 0.382573V1.52661C8.33737 1.52661 9.88013 2.37309 11.5185 3.91727C10.8149 4.67147 10.1114 5.5281 9.443 6.47722C8.30713 6.60035 7.23175 6.79022 6.24675 7.0416C6.13113 6.5286 6.04575 6.03097 5.98537 5.55385C5.74925 3.59407 6.04063 2.07041 6.71913 1.66512C6.86988 1.57279 7.06587 1.53174 7.297 1.53174V0.38771C6.87487 0.38771 6.493 0.480048 6.16125 0.674998C4.74911 1.50609 4.4325 4.09684 5.16125 7.34935C2.03534 8.33435 0 9.90935 0 11.5715C0 13.2388 2.04539 14.819 5.18125 15.7988C4.45763 19.0616 4.77926 21.6575 6.1965 22.4886C6.52313 22.6835 6.905 22.7758 7.32725 22.7758C8.70925 22.7758 10.5184 21.7703 12.3477 20.0261C14.177 21.7601 15.9861 22.7553 17.3681 22.7553C17.7904 22.7553 18.1722 22.663 18.504 22.4681C19.9161 21.637 20.2328 19.0462 19.504 15.7937C22.6199 14.8138 24.6551 13.2337 24.6551 11.5715ZM18.112 8.14972C17.926 8.81147 17.6949 9.49385 17.4335 10.1761C17.2275 9.76572 17.0114 9.35522 16.7751 8.94485C16.544 8.53447 16.2978 8.13435 16.0515 7.74435C16.7651 7.8521 17.4536 7.98547 18.112 8.14972ZM15.8102 13.6133C15.4182 14.3058 15.0163 14.9626 14.5991 15.5731C13.8504 15.6397 13.0915 15.6757 12.3276 15.6757C11.5687 15.6757 10.8099 15.6397 10.0661 15.5782C9.649 14.9677 9.24187 14.3162 8.84987 13.6287C8.468 12.9567 8.12125 12.2743 7.80463 11.5868C8.11625 10.8995 8.468 10.212 8.84488 9.53997C9.23688 8.84735 9.63888 8.19072 10.056 7.58022C10.8049 7.5136 11.5637 7.4776 12.3276 7.4776C13.0865 7.4776 13.8453 7.5136 14.5891 7.5751C15.0061 8.1856 15.4132 8.8371 15.8052 9.5246C16.1871 10.1966 16.534 10.879 16.8505 11.5663C16.534 12.2538 16.1871 12.9412 15.8102 13.6133ZM17.4335 12.9463C17.7049 13.6338 17.936 14.3213 18.127 14.9882C17.4688 15.1523 16.7751 15.2908 16.0565 15.3986C16.3027 15.0036 16.549 14.5983 16.7803 14.1827C17.0114 13.7723 17.2275 13.3568 17.4335 12.9463ZM12.3376 18.4203C11.8702 17.9278 11.4029 17.3788 10.9405 16.7786C11.3929 16.7992 11.8552 16.8146 12.3225 16.8146C12.795 16.8146 13.2624 16.8043 13.7196 16.7786C13.2674 17.3788 12.8 17.9278 12.3376 18.4203ZM8.59862 15.3986C7.885 15.2908 7.1965 15.1575 6.53825 14.9933C6.72413 14.3316 6.95525 13.6492 7.21663 12.967C7.42263 13.3773 7.63875 13.7877 7.875 14.1982C8.11112 14.6086 8.35237 15.0087 8.59862 15.3986ZM12.3125 4.72272C12.7799 5.21522 13.2472 5.7641 13.7096 6.36435C13.2572 6.34385 12.795 6.32847 12.3276 6.32847C11.8552 6.32847 11.3879 6.33872 10.9305 6.36435C11.3827 5.7641 11.8501 5.21522 12.3125 4.72272ZM8.59363 7.74435C8.34737 8.13947 8.10112 8.54472 7.87 8.96022C7.63875 9.37072 7.42263 9.7811 7.21663 10.1915C6.94525 9.5041 6.71413 8.8166 6.52313 8.14972C7.1815 7.9906 7.875 7.8521 8.59363 7.74435ZM4.04554 14.1673C2.26651 13.3927 1.11566 12.377 1.11566 11.5715C1.11566 10.7661 2.26651 9.74522 4.04554 8.9756C4.47774 8.78585 4.95014 8.61647 5.43762 8.45747C5.724 9.46297 6.101 10.5096 6.56837 11.5817C6.106 12.6488 5.73412 13.6903 5.45262 14.6907C4.95516 14.5316 4.48276 14.3572 4.04554 14.1673ZM6.74925 21.4985C6.06575 21.0982 5.76925 19.5746 6.0005 17.6148C6.05575 17.1326 6.14625 16.6247 6.25675 16.1066C7.24175 16.3528 8.31725 16.5427 9.448 16.6658C10.1264 17.6148 10.83 18.4767 11.5386 19.2308C9.90025 20.7853 8.3625 21.637 7.31712 21.637C7.091 21.6318 6.9 21.5856 6.74925 21.4985ZM18.6698 17.5892C18.906 19.549 18.6145 21.0726 17.936 21.478C17.7853 21.5702 17.5892 21.6113 17.3581 21.6113C16.3179 21.6113 14.775 20.7648 13.1367 19.2206C13.8402 18.4665 14.5439 17.6097 15.2122 16.6607C16.348 16.5376 17.4235 16.3477 18.4085 16.0963C18.524 16.6145 18.6145 17.1121 18.6698 17.5892ZM20.6046 14.1673C20.1724 14.3572 19.7 14.5265 19.2125 14.6856C18.9261 13.68 18.5491 12.6335 18.0818 11.5612C18.5441 10.4942 18.916 9.45272 19.1975 8.45235C19.695 8.61135 20.1674 8.78585 20.6096 8.9756C22.3886 9.75035 23.5395 10.7661 23.5395 11.5715C23.5345 12.377 22.3836 13.3978 20.6046 14.1673Z" fill="#848A9A"/>
<path d="M12.1997 13.8292C13.4553 13.8292 14.4733 12.7863 14.4733 11.4997C14.4733 10.2132 13.4553 9.17029 12.1997 9.17029C10.9439 9.17029 9.9259 10.2132 9.9259 11.4997C9.9259 12.7863 10.9439 13.8292 12.1997 13.8292Z" fill="#848A9A"/>
</svg>
