<svg width="25" height="26" viewBox="0 0 25 26" fill="none" xmlns="http://www.w3.org/2000/svg">
<path d="M22.5586 0.5H2.44137C1.093 0.5 0 1.59305 0 2.9414V23.0586C0 24.407 1.093 25.5 2.44137 25.5H22.5586C23.907 25.5 25 24.407 25 23.0586V2.9414C25 1.59305 23.907 0.5 22.5586 0.5Z" fill="#848A9A"/>
<path fill-rule="evenodd" clip-rule="evenodd" d="M15.4785 20.3731V22.8145C15.874 23.0196 16.3574 23.1709 16.8945 23.2735C17.4316 23.376 18.0177 23.4249 18.6035 23.4249C19.1895 23.4249 19.7266 23.3711 20.2636 23.2589C20.8008 23.1465 21.2403 22.961 21.6309 22.7217C22.0264 22.4629 22.3633 22.1357 22.5586 21.6964C22.7539 21.2569 22.9053 20.7686 22.9053 20.1339C22.9053 19.6895 22.8369 19.3037 22.7051 18.962C22.5733 18.6201 22.3829 18.3271 22.1192 18.083C21.8701 17.8243 21.582 17.5947 21.2403 17.3995C20.8985 17.2041 20.5079 16.999 20.0684 16.8135C19.7461 16.6816 19.4824 16.5548 19.1895 16.4278C18.9355 16.3009 18.7159 16.1739 18.5548 16.0469C18.374 15.9151 18.2373 15.7784 18.1396 15.6367C18.042 15.4902 17.9931 15.3291 17.9931 15.1485C17.9931 14.9825 18.0366 14.8311 18.125 14.6944C18.2134 14.5576 18.335 14.4454 18.4913 14.3477C18.6475 14.25 18.8428 14.1768 19.0771 14.1231C19.3066 14.0694 19.5605 14.045 19.8584 14.045C20.0635 14.045 20.2784 14.0601 20.4931 14.0909C20.7178 14.1216 20.9473 14.169 21.1768 14.2325C21.4063 14.2959 21.6309 14.374 21.8604 14.4718C22.0753 14.5694 22.2754 14.6816 22.4463 14.8086V12.5138C22.0753 12.3721 21.665 12.2646 21.2256 12.1964C20.7861 12.128 20.2979 12.0938 19.7119 12.0938C19.126 12.0938 18.5889 12.1573 18.0518 12.2794C17.5146 12.4014 17.0753 12.5968 16.6846 12.8653C16.2891 13.1289 16.001 13.4512 15.7569 13.8906C15.5274 14.3007 15.415 14.7695 15.415 15.3555C15.415 16.0879 15.625 16.7226 16.0498 17.211C16.4698 17.7481 17.124 18.1388 17.9541 18.5294C18.291 18.666 18.5889 18.8027 18.8819 18.9346C19.1748 19.0665 19.419 19.2031 19.6143 19.3447C19.8243 19.4864 19.9903 19.6426 20.1025 19.8086C20.2246 19.9746 20.2881 20.17 20.2881 20.3946C20.2881 20.5509 20.25 20.6973 20.1758 20.834C20.1016 20.9707 19.9854 21.0879 19.8291 21.1856C19.6729 21.2832 19.4824 21.3614 19.2431 21.42C19.0136 21.4736 18.7549 21.503 18.4131 21.503C17.876 21.503 17.3389 21.4102 16.8506 21.2246C16.3135 21.0391 15.8253 20.7608 15.3858 20.3946L15.4785 20.3731ZM11.377 14.3672H14.502V12.3653H5.76178V14.3672H8.88678V23.3028H11.377V14.3672Z" fill="white"/>
</svg>
