<?xml version="1.0" encoding="UTF-8" standalone="no"?>
<!DOCTYPE svg PUBLIC "-//W3C//DTD SVG 1.1//EN" "http://www.w3.org/Graphics/SVG/1.1/DTD/svg11.dtd">
<svg version="1.1" xmlns="http://www.w3.org/2000/svg" xmlns:xlink="http://www.w3.org/1999/xlink" preserveAspectRatio="xMidYMid meet" viewBox="2.5876182424017884 207.8612937826341 225.86158805904017 226.26343653651998" width="221.86" height="222.26"><defs><path d="M192.9 241.41C236.3 284.81 236.3 355.18 192.9 398.58C149.5 441.97 79.14 441.97 35.74 398.58C-7.66 355.18 -7.66 284.81 35.74 241.41C79.14 198.01 149.5 198.01 192.9 241.41Z" id="b3b525el65"></path><path d="M164.4 355.46L164.4 364.82L146 364.82L115.51 319.12L99.26 319.12L99.26 355.46L115.15 355.46L115.15 364.82L75.15 364.82L75.15 355.46L88.89 355.46L88.89 274.93L75.15 273.24C75.15 267.92 75.15 264.97 75.15 264.38C80.35 265.56 84.87 266.39 90.54 266.39C99.08 266.39 107.8 264.38 116.33 264.38C132.91 264.38 148.3 271.91 148.3 290.32C148.3 304.56 139.76 313.6 126.52 317.44C128.24 319.97 136.85 332.65 152.35 355.46L164.4 355.46ZM107.98 310.26C129.25 310.58 137.43 302.4 137.43 291.5C137.43 278.76 128.21 273.74 116.51 273.74C110.99 273.74 105.29 274.24 99.26 274.93C99.26 277.27 99.26 288.99 99.26 310.08C104.49 310.19 107.39 310.25 107.98 310.26Z" id="dDdjwUdAD"></path><path d="M208.66 217.26C208.66 221.88 212.43 225.65 217.06 225.65C221.68 225.65 225.45 221.88 225.45 217.26C225.45 212.63 221.68 208.86 217.06 208.86C212.43 208.86 208.66 212.63 208.66 217.26ZM217.09 224.25C213.22 224.25 210.1 221.09 210.1 217.26C210.1 213.38 213.25 210.26 217.09 210.26C220.93 210.22 224.09 213.38 224.09 217.26C224.09 221.13 220.93 224.25 217.09 224.25Z" id="b1mJ61Qfr"></path><path d="M217.95 217.61C219.14 217.18 219.75 216.32 219.75 215.1C219.75 213.27 218.2 212.63 216.73 212.63C216.34 212.63 215.94 212.66 215.58 212.74C215.23 212.77 214.83 212.81 214.47 212.81C213.97 212.81 213.58 212.74 213.14 212.63C213.13 212.63 213.06 212.61 212.93 212.59L212.93 213.78L214.15 213.92L214.15 220.66L212.93 220.66L212.93 221.88L216.84 221.88L216.84 220.66L215.44 220.66L215.44 217.83L216.59 217.83L219.21 221.78L219.28 221.85L221.18 221.85L221.18 220.63L220.03 220.63C218.78 218.82 218.09 217.82 217.95 217.61ZM217.92 216.25C217.52 216.54 216.91 216.68 216.12 216.68C216.08 216.68 215.85 216.68 215.44 216.68C215.44 215.02 215.44 214.1 215.44 213.92C215.94 213.88 216.37 213.85 216.77 213.85C217.52 213.85 218.42 214.1 218.42 215.21C218.42 215.64 218.24 216 217.92 216.25Z" id="kh9q0Br6N"></path></defs><g><g><use xlink:href="#b3b525el65" opacity="1" fill="#75aadb" fill-opacity="1"></use><g><use xlink:href="#b3b525el65" opacity="1" fill-opacity="0" stroke="#000000" stroke-width="1" stroke-opacity="0"></use></g></g><g><use xlink:href="#dDdjwUdAD" opacity="1" fill="#ffffff" fill-opacity="1"></use><g><use xlink:href="#dDdjwUdAD" opacity="1" fill-opacity="0" stroke="#000000" stroke-width="1" stroke-opacity="0"></use></g></g><g><use xlink:href="#b1mJ61Qfr" opacity="1" fill="#4d4d4d" fill-opacity="1"></use><g><use xlink:href="#b1mJ61Qfr" opacity="1" fill-opacity="0" stroke="#000000" stroke-width="1" stroke-opacity="0"></use></g></g><g><use xlink:href="#kh9q0Br6N" opacity="1" fill="#4d4d4d" fill-opacity="1"></use><g><use xlink:href="#kh9q0Br6N" opacity="1" fill-opacity="0" stroke="#000000" stroke-width="1" stroke-opacity="0"></use></g></g></g></svg>