<svg id="Layer_1" data-name="Layer 1" xmlns="http://www.w3.org/2000/svg" xmlns:xlink="http://www.w3.org/1999/xlink" viewBox="0 0 97 15"><defs><mask id="mask" x="0.82" y="0.85" width="13.37" height="13.3" maskUnits="userSpaceOnUse"><g id="mask0"><path d="M10.3,14.09a.87.87,0,0,0,.67,0l2.75-1.33a.83.83,0,0,0,.47-.75V3a.83.83,0,0,0-.47-.75L11,.93a.84.84,0,0,0-.85.08.43.43,0,0,0-.1.09L4.75,5.9,2.46,4.16a.57.57,0,0,0-.72,0L1,4.86a.56.56,0,0,0,0,.82L3,7.5,1,9.32a.56.56,0,0,0,0,.82l.73.67a.57.57,0,0,0,.72,0L4.75,9.1,10,13.9A.73.73,0,0,0,10.3,14.09Zm.55-9.62-4,3,4,3Z" style="fill:#fff;fill-rule:evenodd"/></g></mask><linearGradient id="linear-gradient" x1="7.5" y1="16.15" x2="7.5" y2="2.85" gradientTransform="matrix(1, 0, 0, -1, 0, 17)" gradientUnits="userSpaceOnUse"><stop offset="0" stop-color="#fff"/><stop offset="1" stop-color="#fff" stop-opacity="0"/></linearGradient></defs><path d="M22.62,11.41h-.35l-2.5-6.84h.53l2,5.51a3.69,3.69,0,0,1,.17.65h0a4.82,4.82,0,0,1,.2-.66l2.1-5.5h.51Z" style="fill:#0093d4"/><path d="M26.47,5.3a.36.36,0,0,1-.25-.11.37.37,0,0,1-.11-.27.33.33,0,0,1,.11-.25.36.36,0,0,1,.25-.1.35.35,0,0,1,.26.1.3.3,0,0,1,.11.25.35.35,0,0,1-.11.27A.36.36,0,0,1,26.47,5.3Zm-.21,6.11V6.53h.44v4.88Z" style="fill:#0093d4"/><path d="M28,11.2v-.53a1.74,1.74,0,0,0,.6.34,2,2,0,0,0,.61.12c.77,0,1.15-.31,1.15-.94a.71.71,0,0,0-.25-.55,3.06,3.06,0,0,0-.82-.47,2.86,2.86,0,0,1-1-.64A1.14,1.14,0,0,1,28,7.74a1.17,1.17,0,0,1,.45-1,1.73,1.73,0,0,1,1.13-.37,2.06,2.06,0,0,1,1.08.26v.49a2.11,2.11,0,0,0-1.13-.35,1.16,1.16,0,0,0-.78.25.8.8,0,0,0-.29.65.88.88,0,0,0,.18.57,2.73,2.73,0,0,0,.82.5,3.51,3.51,0,0,1,1.05.63,1.09,1.09,0,0,1,.29.78,1.21,1.21,0,0,1-.44,1,1.73,1.73,0,0,1-1.2.38A2,2,0,0,1,28,11.2Z" style="fill:#0093d4"/><path d="M35.28,11.41v-.88h0a1.65,1.65,0,0,1-1.57,1c-1.16,0-1.73-.72-1.73-2.18V6.53h.44V9.24a2.45,2.45,0,0,0,.33,1.44,1.18,1.18,0,0,0,1,.45,1.35,1.35,0,0,0,1.1-.5,2,2,0,0,0,.42-1.33V6.53h.44v4.88Z" style="fill:#0093d4"/><path d="M40.21,11.41v-1h0a2,2,0,0,1-.68.8,1.82,1.82,0,0,1-1,.29,1.51,1.51,0,0,1-1.1-.39,1.32,1.32,0,0,1-.41-1c0-.85.56-1.36,1.69-1.54l1.51-.23c0-1.05-.4-1.57-1.19-1.57a2.44,2.44,0,0,0-1.57.65V6.93a2.55,2.55,0,0,1,.74-.37,2.85,2.85,0,0,1,.88-.15,1.43,1.43,0,0,1,1.16.47,2,2,0,0,1,.42,1.36v3.17ZM38.86,9a2.25,2.25,0,0,0-1.08.36,1,1,0,0,0-.31.8,1,1,0,0,0,.29.71,1.09,1.09,0,0,0,.81.28,1.49,1.49,0,0,0,1.17-.52,2,2,0,0,0,.47-1.35V8.78Z" style="fill:#0093d4"/><path d="M42.12,11.41V4.18h.44v7.23Z" style="fill:#0093d4"/><path d="M46.68,11.17v-.54a2.78,2.78,0,0,0,1.49.47,2,2,0,0,0,1.22-.33,1.14,1.14,0,0,0,.41-.93A1.2,1.2,0,0,0,49.52,9a5.34,5.34,0,0,0-1.21-.85,4.42,4.42,0,0,1-1.32-1,1.7,1.7,0,0,1-.27-.95A1.62,1.62,0,0,1,47.28,5a2.16,2.16,0,0,1,1.5-.5,3.77,3.77,0,0,1,1.23.2v.5a3.11,3.11,0,0,0-1.29-.27,1.6,1.6,0,0,0-1.1.35,1.13,1.13,0,0,0-.41.9,1.18,1.18,0,0,0,.28.83,5.46,5.46,0,0,0,1.2.85,4.29,4.29,0,0,1,1.28,1,1.59,1.59,0,0,1,.32,1A1.64,1.64,0,0,1,49.74,11a2.21,2.21,0,0,1-1.54.49,3.26,3.26,0,0,1-.82-.11A2.42,2.42,0,0,1,46.68,11.17Z" style="fill:#0093d4"/><path d="M53.59,11.35a1.47,1.47,0,0,1-.64.16c-.73,0-1.09-.43-1.09-1.3V6.93H51v-.4h.88V5.26l.22-.08.22-.07V6.53h1.29v.4H52.3v3.22a1.29,1.29,0,0,0,.16.74.62.62,0,0,0,.54.22,1.19,1.19,0,0,0,.59-.17Z" style="fill:#0093d4"/><path d="M57.79,11.41v-.88h0a1.67,1.67,0,0,1-1.58,1c-1.15,0-1.73-.72-1.73-2.18V6.53h.44V9.24a2.45,2.45,0,0,0,.33,1.44,1.19,1.19,0,0,0,1,.45,1.35,1.35,0,0,0,1.1-.5,2,2,0,0,0,.43-1.33V6.53h.43v4.88Z" style="fill:#0093d4"/><path d="M63.26,11.41v-.88h0a1.72,1.72,0,0,1-.71.73,2.05,2.05,0,0,1-1.05.27A1.88,1.88,0,0,1,60,10.88a2.7,2.7,0,0,1-.57-1.82,2.84,2.84,0,0,1,.62-1.92,2,2,0,0,1,1.62-.73,1.62,1.62,0,0,1,1.56.9h0V4.18h.44v7.23Zm0-3a1.67,1.67,0,0,0-.43-1.16,1.52,1.52,0,0,0-1.16-.47,1.59,1.59,0,0,0-1.27.59A2.38,2.38,0,0,0,59.9,9a2.42,2.42,0,0,0,.45,1.56,1.41,1.41,0,0,0,1.16.55,1.63,1.63,0,0,0,1.29-.51,1.84,1.84,0,0,0,.46-1.27Z" style="fill:#0093d4"/><path d="M65.48,5.3a.34.34,0,0,1-.25-.11.33.33,0,0,1-.11-.27.3.3,0,0,1,.11-.25.35.35,0,0,1,.25-.1.37.37,0,0,1,.26.1.33.33,0,0,1,.11.25.39.39,0,0,1-.11.27A.36.36,0,0,1,65.48,5.3Zm-.22,6.11V6.53h.44v4.88Z" style="fill:#0093d4"/><path d="M69.23,11.53a2.13,2.13,0,0,1-1.69-.7A2.64,2.64,0,0,1,66.92,9a2.61,2.61,0,0,1,.65-1.9,2.23,2.23,0,0,1,1.71-.69,2.1,2.1,0,0,1,1.65.68A2.74,2.74,0,0,1,71.54,9a2.72,2.72,0,0,1-.62,1.85A2.12,2.12,0,0,1,69.23,11.53Zm0-4.72a1.73,1.73,0,0,0-1.37.58A2.34,2.34,0,0,0,67.37,9a2.3,2.3,0,0,0,.5,1.54,1.73,1.73,0,0,0,1.37.58,1.66,1.66,0,0,0,1.36-.57A2.4,2.4,0,0,0,71.08,9a2.42,2.42,0,0,0-.47-1.6A1.69,1.69,0,0,0,69.26,6.81Z" style="fill:#0093d4"/><path d="M80.07,11.19a4.45,4.45,0,0,1-1.73.34,3,3,0,0,1-2.29-.94,3.45,3.45,0,0,1-.88-2.46,3.7,3.7,0,0,1,1-2.67,3.22,3.22,0,0,1,2.44-1,4.46,4.46,0,0,1,1.5.25v.5a3.56,3.56,0,0,0-1.51-.32,2.74,2.74,0,0,0-2.1.87,3.28,3.28,0,0,0-.81,2.32,3,3,0,0,0,.78,2.21,2.56,2.56,0,0,0,1.95.81,3.72,3.72,0,0,0,1.69-.37Z" style="fill:#0093d4"/><path d="M83.46,11.53a2.15,2.15,0,0,1-1.69-.7A2.69,2.69,0,0,1,81.15,9a2.65,2.65,0,0,1,.65-1.9,2.25,2.25,0,0,1,1.72-.69,2.13,2.13,0,0,1,1.65.68A2.78,2.78,0,0,1,85.77,9a2.67,2.67,0,0,1-.62,1.85A2.12,2.12,0,0,1,83.46,11.53Zm0-4.72a1.73,1.73,0,0,0-1.38.58A2.38,2.38,0,0,0,81.61,9a2.25,2.25,0,0,0,.5,1.54,1.7,1.7,0,0,0,1.37.58,1.68,1.68,0,0,0,1.36-.57A2.39,2.39,0,0,0,85.31,9a2.37,2.37,0,0,0-.47-1.6A1.69,1.69,0,0,0,83.5,6.81Z" style="fill:#0093d4"/><path d="M90.45,11.41v-.88h0a1.78,1.78,0,0,1-.71.73,2.06,2.06,0,0,1-1.06.27,1.88,1.88,0,0,1-1.47-.65,2.7,2.7,0,0,1-.57-1.82,2.89,2.89,0,0,1,.62-1.92,2,2,0,0,1,1.62-.73,1.64,1.64,0,0,1,1.57.9h0V4.18h.44v7.23Zm0-3A1.67,1.67,0,0,0,90,7.28a1.51,1.51,0,0,0-1.16-.47,1.62,1.62,0,0,0-1.27.59A2.43,2.43,0,0,0,87.09,9a2.42,2.42,0,0,0,.45,1.56,1.43,1.43,0,0,0,1.16.55,1.67,1.67,0,0,0,1.3-.51,1.88,1.88,0,0,0,.45-1.27Z" style="fill:#0093d4"/><path d="M92.56,9A2.44,2.44,0,0,0,93,10.57a1.59,1.59,0,0,0,1.28.56,2.62,2.62,0,0,0,1.6-.6V11a2.86,2.86,0,0,1-1.69.54,1.92,1.92,0,0,1-1.53-.67,2.86,2.86,0,0,1-.58-1.92,2.75,2.75,0,0,1,.6-1.8,2,2,0,0,1,1.59-.73,1.63,1.63,0,0,1,1.39.64,2.77,2.77,0,0,1,.49,1.74V9Zm3.16-.4a2.17,2.17,0,0,0-.4-1.31,1.24,1.24,0,0,0-1-.47,1.51,1.51,0,0,0-1.14.46,2.23,2.23,0,0,0-.56,1.32Z" style="fill:#0093d4"/><g style="mask:url(#mask)"><path d="M13.72,2.26,11,.93a.84.84,0,0,0-1,.17L1,9.32a.56.56,0,0,0,0,.82l.74.67a.56.56,0,0,0,.71,0L13.3,2.6a.56.56,0,0,1,.89.44V3A.83.83,0,0,0,13.72,2.26Z" style="fill:#0065a9"/><path d="M13.72,12.74,11,14.07a.84.84,0,0,1-1-.17L1,5.68a.56.56,0,0,1,0-.82l.74-.67a.56.56,0,0,1,.71,0L13.3,12.4a.56.56,0,0,0,.89-.44v0A.83.83,0,0,1,13.72,12.74Z" style="fill:#007acc"/><path d="M11,14.07a.84.84,0,0,1-1-.17.49.49,0,0,0,.83-.34V1.44A.49.49,0,0,0,10,1.1a.84.84,0,0,1,1-.17l2.75,1.33a.83.83,0,0,1,.47.75v9a.83.83,0,0,1-.47.75Z" style="fill:#1f9cf0"/><g style="opacity:0.25"><path d="M10.3,14.09a.84.84,0,0,0,.66,0l2.75-1.33a.83.83,0,0,0,.47-.75V3a.83.83,0,0,0-.47-.75L11,.93a.84.84,0,0,0-.85.08.43.43,0,0,0-.1.09L4.74,5.9,2.45,4.16a.56.56,0,0,0-.71,0L1,4.86a.56.56,0,0,0,0,.82L3,7.5,1,9.32a.56.56,0,0,0,0,.82l.74.67a.56.56,0,0,0,.71,0L4.74,9.1,10,13.9A.7.7,0,0,0,10.3,14.09Zm.54-9.62-4,3,4,3Z" style="fill-rule:evenodd;fill:url(#linear-gradient)"/></g></g></svg>