<svg xmlns="http://www.w3.org/2000/svg" xmlns:xlink="http://www.w3.org/1999/xlink" width="24" height="24" viewBox="0 0 24 24">
  <defs>
    <path id="browse-in-rok-blue-a" d="M15.9899671,8.40418062 C15.779458,12.6346619 12.2827374,16 8,16 C3.581722,16 0,12.418278 0,8 C0,4.27063317 2.55185507,1.13728403 6.00468786,0.250829921 C6.00157195,0.333500797 6,0.416566824 6,0.5 C6,4.08985087 8.91014913,7 12.5,7 C13.1339017,7 13.7466095,6.90925845 14.3258426,6.7400562 L15.9899671,8.40418062 Z"/>
  </defs>
  <g fill="none" fill-rule="evenodd" transform="translate(-3234 -2346)">
    <g transform="translate(3237 2352)">
      <mask id="browse-in-rok-blue-b" fill="#fff">
        <use xlink:href="#browse-in-rok-blue-a"/>
      </mask>
      <use fill="#4990E2" xlink:href="#browse-in-rok-blue-a"/>
      <path fill="#FFF" fill-rule="nonzero" d="M3,3 L3,13 L13,13 L13,3 L3,3 Z M2,2 L14,2 L14,14 L2,14 L2,2 Z" mask="url(#browse-in-rok-blue-b)"/>
      <path fill="#FFF" fill-rule="nonzero" d="M6,10 L10,10 L10,6 L6,6 L6,10 Z M5,5 L11,5 L11,11 L5,11 L5,5 Z" mask="url(#browse-in-rok-blue-b)"/>
    </g>
    <path fill="#4990E2" fill-rule="nonzero" d="M3249.5,2355 C3250.88071,2355 3252,2353.88071 3252,2352.5 C3252,2351.11929 3250.88071,2350 3249.5,2350 C3248.11929,2350 3247,2351.11929 3247,2352.5 C3247,2353.88071 3248.11929,2355 3249.5,2355 Z M3249.5,2357 C3247.01472,2357 3245,2354.98528 3245,2352.5 C3245,2350.01472 3247.01472,2348 3249.5,2348 C3251.98528,2348 3254,2350.01472 3254,2352.5 C3254,2354.98528 3251.98528,2357 3249.5,2357 Z"/>
    <polygon fill="#4990E2" fill-rule="nonzero" points=".793 2.207 4.328 5.743 5.743 4.328 2.207 .793" transform="translate(3251 2354)"/>
  </g>
</svg>
