
<svg width="99px" height="20px" viewBox="0 0 99 20" version="1.1" xmlns="http://www.w3.org/2000/svg" xmlns:xlink="http://www.w3.org/1999/xlink">
    <defs></defs>
    <g id="final" stroke="none" stroke-width="1" fill="none" fill-rule="evenodd">
        <g id="400_kflow" transform="translate(-237.000000, -184.000000)">
            <g id="Group-10" transform="translate(190.000000, 180.000000)">
                <g id="Group-3">
                    <g id="Group-2" transform="translate(47.833333, 4.666667)">
                        <polyline id="Fill-7" fill="#FFFFFF" points="13.3001761 1.43310692 9.54289308 1.43310692 3.14867925 8.74374843 3.14867925 1.43310692 0 1.43310692 0 18.3257358 3.14867925 18.3257358 3.14867925 12.993761 4.61207547 11.3271447 9.97152201 18.3257358 13.7696604 18.3257358 6.65554717 8.9607044 13.3001761 1.43310692"></polyline>
                        <path d="M21.5388679,14.3916478 C21.5388679,14.8371824 21.3655849,15.1457107 20.9774591,15.3915472 C20.5164277,15.683522 19.979673,15.8251069 19.3365535,15.8251069 C18.6997736,15.8251069 18.1644277,15.6831698 17.6991698,15.3904906 C17.3085786,15.1446541 17.134239,14.836478 17.134239,14.3916478 L17.134239,5.94093082 L14.0954465,5.94093082 L14.0954465,14.3215597 C14.0954465,15.6986667 14.6607296,16.7901384 15.7761509,17.5653333 C16.8278239,18.2957987 18.0238994,18.6666667 19.3309182,18.6666667 C20.6389937,18.6666667 21.8371824,18.2919245 22.8927296,17.5533585 C24.0106164,16.7707673 24.5776604,15.6831698 24.5776604,14.3215597 L24.5776604,5.94093082 L21.5388679,5.94093082 L21.5388679,14.3916478" id="Fill-9" fill="#FFFFFF"></path>
                        <path d="M30.7957736,15.4845283 L29.7560755,15.4845283 L29.7560755,8.81454088 C30.5171824,8.56659119 31.4223396,8.44155975 32.4528805,8.44155975 C33.2171572,8.44155975 33.7387673,8.71522013 34.0948428,9.30339623 C34.496,9.96588679 34.6995723,10.7586918 34.6995723,11.6589182 C34.6995723,13.0370818 34.4044277,14.0299371 33.822239,14.6096604 C33.2396981,15.1904403 32.2214843,15.4845283 30.7957736,15.4845283 Z M36.6067421,7.67376101 C36.2034717,7.04332075 35.6371321,6.53403774 34.9221635,6.1592956 C34.214239,5.78807547 33.3911447,5.6 32.4722516,5.6 C31.6100629,5.60633962 30.6992704,5.74228931 29.7560755,6.00608805 L29.7560755,0.289861635 L26.717283,0.289861635 L26.717283,18.3257358 L30.7661887,18.3257358 C33.1234717,18.3257358 34.8939874,17.7544654 36.0277233,16.6281258 C37.1628679,15.5003774 37.7383648,13.8510189 37.7383648,11.7254843 C37.7383648,11.0055849 37.6450314,10.2937862 37.4608302,9.61122013 C37.2745157,8.92125786 36.9874717,8.26933333 36.6067421,7.67376101 Z" id="Fill-10" fill="#FFFFFF"></path>
                        <path d="M44.8169057,8.44155975 C45.5008805,8.44155975 45.983044,8.67612579 46.3338365,9.17977358 C46.637434,9.61615094 46.8536855,10.1595975 46.980478,10.800956 L42.2183648,10.800956 C42.3708679,10.1641761 42.6417107,9.64397484 43.0389937,9.22203774 C43.5334843,8.69655346 44.1149686,8.44155975 44.8169057,8.44155975 Z M50.0858365,12.8039245 C50.0858365,9.51753459 49.171522,5.6 44.8169057,5.6 C43.0805535,5.6 41.6594214,6.20754717 40.5922516,7.40538365 C39.5419874,8.58420126 39.0094591,10.1673459 39.0094591,12.1107925 C39.0094591,12.9912956 39.1341384,13.8207296 39.380327,14.5751447 C39.6303899,15.3411824 40.0164025,16.0413585 40.5270943,16.6555975 C41.051522,17.2863899 41.7506415,17.7865157 42.605434,18.1411824 C43.4443774,18.4898616 44.4287799,18.6666667 45.535044,18.6666667 C46.7850063,18.6582138 48.0205283,18.424 49.2070943,17.9693082 L49.568805,17.8312453 L49.568805,14.7942138 L48.7703648,15.1626164 C47.8162516,15.6025157 46.6451824,15.8251069 45.2895597,15.8251069 C44.2090063,15.8251069 43.4405031,15.5338365 42.9403774,14.9340377 C42.5402767,14.4546918 42.2761258,13.9380126 42.1408805,13.3670943 L50.0858365,13.3670943 L50.0858365,12.8039245 Z" id="Fill-11" fill="#FFFFFF"></path>
                        <path d="M54.0526792,1.30138365 C53.4018113,1.94485535 53.0717987,2.79612579 53.0717987,3.83194969 L53.0717987,5.94093082 L51.3238239,5.94093082 L51.3238239,8.78213836 L53.0717987,8.78213836 L53.0717987,18.3257358 L56.1105912,18.3257358 L56.1105912,8.78213836 L59.0902138,8.78213836 L59.0902138,5.94093082 L56.1105912,5.94093082 L56.1105912,4.83290566 C56.1105912,3.85836478 56.287044,3.52976101 56.3631195,3.43396226 C56.4113711,3.37303145 56.6325535,3.17474214 57.4605786,3.17474214 L59.7829937,3.17474214 L59.7829937,0.333886792 L56.4494088,0.333886792 C55.508327,0.333886792 54.701434,0.659672956 54.0526792,1.30138365" id="Fill-13" fill="#FFFFFF"></path>
                        <polygon id="Clip-15" points="61.1636226 0.312050314 79.4087044 0.312050314 79.4087044 18.6455346 61.1636226 18.6455346"></polygon>
                        <polygon id="Fill-14" fill="#FFFFFF" points="61.1636226 18.3257358 64.2027673 18.3257358 64.2027673 0.312050314 61.1636226 0.312050314"></polygon>
                        <path d="M72.8147925,15.8251069 C71.7250818,15.8251069 70.8822642,15.4841761 70.2373836,14.7815346 C69.5801761,14.0655094 69.2603774,13.1994465 69.2603774,12.1333333 C69.2603774,11.0675723 69.5801761,10.2011572 70.2377358,9.48477987 C70.8822642,8.78249057 71.7250818,8.44155975 72.8147925,8.44155975 C73.8911195,8.44155975 74.7311195,8.78319497 75.383044,9.48689308 C76.0469434,10.2029182 76.3695597,11.0686289 76.3695597,12.1333333 C76.3695597,13.1980377 76.0469434,14.0633962 75.383044,14.7797736 C74.7311195,15.4834717 73.8911195,15.8251069 72.8147925,15.8251069 Z M72.8147925,5.6 C70.9023396,5.6 69.3068679,6.23783648 68.0738113,7.49519497 C66.8446289,8.74973585 66.2212327,10.3099874 66.2212327,12.1333333 C66.2212327,13.9566792 66.8425157,15.5165786 68.0678239,16.7707673 C69.2970063,18.028478 70.8938868,18.6666667 72.8147925,18.6666667 C74.7106918,18.6666667 76.3015849,18.024956 77.5423899,16.7605535 C78.7807296,15.4989686 79.4087044,13.9418868 79.4087044,12.1333333 C79.4087044,10.3251321 78.7807296,8.76840252 77.5423899,7.50576101 C76.3012327,6.24135849 74.7103396,5.6 72.8147925,5.6 Z" id="Fill-16" fill="#FFFFFF"></path>
                        <polyline id="Fill-18" fill="#FFFFFF" points="94.3216101 5.94093082 92.1478239 13.4100629 89.9835472 5.94093082 87.2529308 5.94093082 85.0618868 13.4061887 82.9078239 5.94093082 79.695044 5.94093082 83.5791195 18.3257358 86.6999748 18.3257358 88.6677233 11.2144403 90.6435723 18.3257358 93.6401006 18.3257358 97.5340377 5.94093082 94.3216101 5.94093082"></polyline>
                    </g>
                </g>
            </g>
        </g>
    </g>
</svg>
