
<svg xmlns="http://www.w3.org/2000/svg" width="130" height="62" viewBox="0 0 158.71 31.2" style="color:#5ee395;">


<path style="fill:#000;" d="M37.68 11.32c0-3.38 3.51-5.07 6.81-5.07 3.56 0 6.34 1.62 7.06 5.37h-3.06c-.49-2.16-2.41-2.78-4.17-2.78-1.39 0-3.46.62-3.46 2.38 0 1.4 1.15 2.09 2.69 2.39l2.21.42c3.16.62 6.16 1.77 6.16 5.39s-3.6 5.5-7.15 5.5c-4.28 0-7.21-2.34-7.58-6.29h3.1a4.32 4.32 0 0 0 4.62 3.7c2.14 0 3.86-1 3.86-2.71s-2-2.46-3.71-2.78l-2.18-.42c-2.88-.57-5.2-2.04-5.2-5.1zM57.27 13a4.42 4.42 0 0 1 4-2.08c3.16 0 5.82 2.7 5.82 7s-2.66 7-5.82 7a4.41 4.41 0 0 1-4-2.09v1.76h-3v-18h3zM64 17.91c0-2.81-1.42-4.57-3.38-4.57s-3.46 1.49-3.46 4.57 1.52 4.6 3.46 4.6S64 20.74 64 17.91zM75.36 22.46a3.28 3.28 0 0 0 3.28-1.87h2.91a6.06 6.06 0 0 1-6.07 4.33c-4.3 0-6.76-3.28-6.76-7.11 0-4 2.76-6.88 6.56-6.88 4.1 0 6.66 3.33 6.42 7.82h-10a3.7 3.7 0 0 0 3.66 3.71zm3.33-5.87a3.36 3.36 0 0 0-3.41-3.35 3.48 3.48 0 0 0-3.55 3.35zM90 14.16c-1.86 0-2.93.74-2.93 3.43v7h-3V11.22H87v2.39a4 4 0 0 1 3.63-2.41 6.78 6.78 0 0 1 .77.05v3a14.19 14.19 0 0 0-1.4-.09zM101.05 24.92c-5.26 0-8.32-3.76-8.32-9.4S96 6.25 101.2 6.25a7.22 7.22 0 0 1 7.58 6.32h-3a4.48 4.48 0 0 0-4.65-3.73c-2.85 0-5.11 2.33-5.11 6.68s2.21 6.81 5.09 6.81a4.46 4.46 0 0 0 4.72-3.72h3c-.74 4.02-3.62 6.31-7.78 6.31zM111.34 24.59v-18h3v18zM123.32 24.92c-3.25 0-6.58-2.17-6.58-7s3.33-7 6.58-7 6.59 2.18 6.59 7-3.33 7-6.59 7zm3.53-7c0-3.08-1.66-4.59-3.53-4.59s-3.53 1.51-3.53 4.59 1.67 4.58 3.53 4.58 3.53-1.5 3.53-4.57zM136.64 24.92c-3.18 0-4.47-2.09-4.47-5.27v-8.43h3v7.71c0 1.81.25 3.58 2.46 3.58s3-1.74 3-4.15v-7.14h3v13.37h-3v-1.84a4.23 4.23 0 0 1-3.99 2.17zM158.71 6.58v18h-3v-1.75a4.41 4.41 0 0 1-4 2.09c-3.16 0-5.82-2.71-5.82-7s2.66-7 5.82-7a4.42 4.42 0 0 1 4 2.08V6.58zM149 17.91c0 2.83 1.42 4.6 3.38 4.6s3.46-1.52 3.46-4.6-1.52-4.57-3.46-4.57S149 15.1 149 17.91z"></path><path fill="currentColor" d="M11.91 5.91h2.52v5.03h-2.52zM11.91 0h2.52v2.52h-2.52zM5.96 4.2h2.52v2.52H5.96zM5.96 10.09h2.52v5.04H5.96zM0 8.42h2.52v2.52H0zM0 14.34h2.52v2.52H0zM20.38 6.73h-2.52V4.21h2.52zM17.87 10.09h2.52v5.04h-2.52zM26.34 10.94h-2.52V8.42h2.52zM11.91 11.85h2.52v7.5h-2.52zM11.91 20.26h2.52v5.03h-2.52zM14.43 31.2h-2.52v-2.52h2.52zM20.38 26.99h-2.52v-2.52h2.52zM17.87 16.07h2.52v5.04h-2.52zM26.34 22.78h-2.52v-2.52h2.52zM5.96 24.48h2.52V27H5.96zM5.96 16.07h2.52v5.04H5.96zM0 20.26h2.52v2.52H0zM26.34 16.86h-2.52v-2.52h2.52z"></path>


</svg>
