
<svg width="29px" height="28px" viewBox="0 0 29 28" version="1.1" xmlns="http://www.w3.org/2000/svg" xmlns:xlink="http://www.w3.org/1999/xlink">
    <defs></defs>
    <g id="final" stroke="none" stroke-width="1" fill="none" fill-rule="evenodd">
        <g id="400_kflow" transform="translate(-190.000000, -180.000000)">
            <rect fill="#3B78E7" x="0" y="0" width="1320" height="940"></rect>
            <g id="Group-10" transform="translate(190.000000, 180.000000)" fill="#FFFFFF">
                <g id="Group-3">
                    <g id="Group">
                        <path d="M7.89721739,9.52532609 L8.51656522,25.0622826 L19.7401522,10.7401304 C19.910587,10.5228261 20.1607609,10.3826739 20.4351304,10.3510217 C20.710413,10.3192174 20.9852391,10.3986522 21.2007174,10.5715217 L28.2023913,16.1890217 L25.923587,6.20473913 L7.89721739,9.52532609" id="Fill-1"></path>
                        <polyline id="Fill-2" points="8.90902174 27.9131087 18.865 27.9131087 12.7521739 23.0091522 8.90902174 27.9131087"></polyline>
                        <polyline id="Fill-3" points="20.7224348 12.8384565 14.0275435 21.3818043 21.1613043 27.104913 27.9281739 18.6193913 20.7224348 12.8384565"></polyline>
                        <path d="M6.02076087,8.02626087 C6.02106522,8.02580435 6.02152174,8.02534783 6.02197826,8.0248913 L11.909587,0.641869565 L2.41484783,5.21423913 L0.0698478261,15.4885652 L6.02076087,8.02626087" id="Fill-4"></path>
                        <polyline id="Fill-5" points="0.200717391 18.6402391 6.50680435 26.5478043 5.90647826 11.4856304 0.200717391 18.6402391"></polyline>
                        <polyline id="Fill-6" points="24.0903478 4.44028261 15.0113478 0.068173913 9.36113043 7.1533913 24.0903478 4.44028261"></polyline>
                    </g>
                </g>
            </g>
        </g>
    </g>
</svg>
