<?xml version="1.0" encoding="UTF-8"?>
<svg width="64px" height="64px" viewBox="0 0 64 64" version="1.1" xmlns="http://www.w3.org/2000/svg" xmlns:xlink="http://www.w3.org/1999/xlink">
    <!-- Generator: Sketch 52.6 (67491) - http://www.bohemiancoding.com/sketch -->
    <title>kf-logo-64px</title>
    <desc>Created with Sketch.</desc>
    <g id="kf-logo-64px" stroke="none" stroke-width="1" fill="none" fill-rule="evenodd">
        <g id="Group-31" fill="#FFFFFF">
            <path d="M21.5433105,51.5890261 L45.3288295,22.0854614 C45.7152113,21.6065975 46.2823647,21.2977503 46.9043705,21.2279998 C47.5284462,21.157914 48.1514869,21.3329609 48.639984,21.7139059 L62.1444118,32.2457069 C62.5799155,32.5853464 63.2082932,32.5076332 63.5479327,32.0721295 C63.7416627,31.8237188 63.8070126,31.4985425 63.7242929,31.1945744 L59.5872122,15.9921361 C59.4511876,15.4922896 58.9559634,15.1790709 58.4460488,15.2703748 L19.3425495,22.2721387 C18.8490752,22.3604988 18.4972897,22.8005954 18.5198133,23.3014118 L19.7658082,51.0063248 C19.7906215,51.5580519 20.2579998,51.9851999 20.8097268,51.9603867 C21.0961888,51.9475034 21.3633367,51.8122657 21.5433105,51.5890261 Z" id="Fill-1"></path>
            <path d="M44.1848798,59.8351894 L32.7005672,51.1843746 C31.821442,50.5221538 30.5724652,50.6947063 29.9058221,51.5704828 L21.8409085,62.1654496 C21.5063954,62.6049031 21.5914665,63.2323271 22.0309201,63.5668402 C22.232845,63.7205459 22.4856547,63.7917329 22.7381138,63.7659742 L43.6847125,61.6287681 C44.2341448,61.5727089 44.6341026,61.0818611 44.5780434,60.5324288 C44.5497792,60.2554132 44.407293,60.002727 44.1848798,59.8351894 Z" id="Fill-2"></path>
            <path d="M35.6688061,45.6517987 L48.6864413,55.5772615 C49.1127741,55.9023245 49.7196021,55.8333458 50.0621004,55.4208891 L62.0662848,40.9647431 C62.4191093,40.539851 62.360687,39.9093871 61.9357949,39.5565625 C61.9251168,39.5476956 61.9142552,39.5390519 61.9032173,39.5306371 L48.7687683,29.517578 C48.3400416,29.1907378 47.7294014,29.2625739 47.3882289,29.6799854 L35.5008583,44.2237277 C35.1513431,44.6513462 35.2146583,45.2813375 35.6422768,45.6308527 C35.6510012,45.6379837 35.6598456,45.6449667 35.6688061,45.6517987 Z" id="Fill-3"></path>
            <path d="M21.7054678,2.3697481 L6.05945813,9.81064169 C4.95741864,10.3347471 4.1549072,11.3332509 3.88011776,12.5222287 L0.0189810197,29.2288601 C-0.105381601,29.7669608 0.230019397,30.3039935 0.768120116,30.4283561 C1.14119373,30.5145786 1.53074736,30.3801957 1.7713094,30.0822894 L12.4265168,16.8871352 L22.9129587,3.90107712 C23.2599337,3.47139492 23.1928863,2.84178986 22.7632041,2.49481486 C22.4640051,2.25320704 22.0527638,2.20458187 21.7054678,2.3697481 Z" id="Fill-4"></path>
            <path d="M13.8403874,57.6461845 L12.7216633,29.6431897 C12.699617,29.0913452 12.2343866,28.6618588 11.682542,28.6839051 C11.392824,28.6954794 11.1223931,28.8322321 10.9413507,29.0587142 L0.807622908,41.7358918 C0.223920775,42.4660965 0.223914656,43.5032374 0.807608172,44.2334489 L12.0600675,58.3104875 C12.4049056,58.7418865 13.0341702,58.8120579 13.4655692,58.4672198 C13.7139305,58.2686925 13.8530797,57.9638877 13.8403874,57.6461845 Z" id="Fill-5"></path>
            <path d="M33.1694765,1.0451831 L23.0708554,13.4304769 C22.7218487,13.8585106 22.7859128,14.4884262 23.2139464,14.8374329 C23.4402265,15.0219353 23.7358388,15.0983317 24.0231786,15.0465663 L51.6363505,10.0719449 C52.1798854,9.97402498 52.5411276,9.45402313 52.4432077,8.91048829 C52.3858335,8.59201524 52.1778975,8.32099193 51.8851433,8.18310844 L35.5717086,0.499688773 C34.7407076,0.108297891 33.7499434,0.333278763 33.1694765,1.0451831 Z" id="Fill-6"></path>
        </g>
    </g>
</svg>