<?xml version="1.0" encoding="utf-8"?>
<!-- Generator: Adobe Illustrator 13.0.2, SVG Export Plug-In . SVG Version: 6.00 Build 14948)  -->
<!DOCTYPE svg PUBLIC "-//W3C//DTD SVG 1.1//EN" "http://www.w3.org/Graphics/SVG/1.1/DTD/svg11.dtd">
<svg version="1.1" id="Ebene_1" xmlns="http://www.w3.org/2000/svg" xmlns:xlink="http://www.w3.org/1999/xlink" x="0px" y="0px"
  width="14.35px" height="42.88px" viewBox="0 0 14.35 42.88" enable-background="new 0 0 14.35 42.88" xml:space="preserve">
<g>
  <path d="M12.583,28.057v2.027H1.228c-0.016-0.508,0.066-0.996,0.246-1.465c0.289-0.773,0.752-1.535,1.389-2.285
    s1.557-1.617,2.76-2.602c1.867-1.531,3.129-2.744,3.785-3.639s0.984-1.74,0.984-2.537c0-0.836-0.299-1.541-0.896-2.115
    s-1.377-0.861-2.338-0.861c-1.016,0-1.828,0.305-2.438,0.914s-0.918,1.453-0.926,2.531l-2.168-0.223
    c0.148-1.617,0.707-2.85,1.676-3.697s2.27-1.271,3.902-1.271c1.648,0,2.953,0.457,3.914,1.371s1.441,2.047,1.441,3.398
    c0,0.688-0.141,1.363-0.422,2.027s-0.748,1.363-1.4,2.098s-1.736,1.742-3.252,3.023c-1.266,1.063-2.078,1.783-2.438,2.162
    s-0.656,0.76-0.891,1.143H12.583z"/>
</g>
</svg>
