<svg xmlns="http://www.w3.org/2000/svg" viewBox="0 0 1265.88 98.26667" width="130px" height="15px">
  <path fill="white" d="M21.4401328 16.32493572l43.56826557 79.15527802 50.44786541.03905333 42.82373226-79.20566469 21.4653328.01133334V1.9702694h-64.56613172v14.34333297h18.6474662l-31.18399922 57.6613319-31.6035992-57.64999856 22.66359942-.01133334L93.697331 1.97026941H.01875L0 16.3249357h21.4401328M576.53731892 16.28746905l-.00933333-14.3166663 86.38399784.01146666v14.30519964H641.3973173v64.61559838h19.9479995c18.48533287 0 30.6026659-12.20666636 30.6026659-28.77333261h14.25066631v43.26714559l-129.67066342.01041333V80.9229341h21.77733279l-.028-64.63546505h-21.73999946M366.5866575 83.40466737c-15.8399996-.2864-22.80399943-17.79426622-22.49999944-35.19066579.31466666-18.01666621 8.93599978-33.72653249 23.77466608-33.4681325 14.8386663.2604 22.67333276 16.2707996 22.3546661 34.27866582-.30133332 16.98946624-7.31466648 34.6770658-23.62933274 34.38013247m.48133332-83.40573125c-43.37733225 0-66.41599834 21.6401328-66.41599834 48.79373212 0 27.52866598 22.18399945 49.47399876 66.666665 49.47399876 44.4679989 0 66.41599834-21.94533278 66.41599834-49.47399876 0-27.15359932-23.28266608-48.79373212-66.666665-48.79373212M853.55597866 16.32493572l43.56666558 79.15527802 50.44799874.03905333 42.82399893-79.20566469 21.4653328.01133334V1.9702694h-64.5679984v14.34333297h18.64933287l-31.18266588 57.6613319-31.60399921-57.64999856 22.66399943-.01133334-.00533333-14.34333297h-93.67999766l-.01866667 14.3546663h21.4413328M1198.72797003 83.40466737c-15.8399996-.2864-22.8026661-17.79426622-22.49999944-35.19066579.316-18.01666621 8.93599978-33.72653249 23.77466608-33.4681325 14.83999963.2604 22.67333276 16.2707996 22.35333277 34.27866582-.3 16.98946624-7.31199982 34.6770658-23.6279994 34.38013247m.48133331-83.40573125c-43.37733225 0-66.414665 21.6401328-66.414665 48.79373212 0 27.52866598 22.1826661 49.47399876 66.66533166 49.47399876 44.47066556 0 66.41733168-21.94533278 66.41733168-49.47399876 0-27.15359932-23.28266609-48.79373212-66.66799834-48.79373212"/>
</svg>