<svg xmlns="http://www.w3.org/2000/svg" viewBox="0 0 48 48" width="64px" height="64px"><g data-name="Volvo"><path fill="#b6bbbf" d="M24,5A20,20,0,1,0,44,25,20.091,20.091,0,0,0,24,5Zm0,34A13.758,13.758,0,0,1,10,25,13.758,13.758,0,0,1,24,11,13.758,13.758,0,0,1,38,25,13.758,13.758,0,0,1,24,39Z"/><polygon fill="#b6bbbf" points="44 4 44 14 34 4 44 4"/><path fill="#1452ad" d="M38,25a14.352,14.352,0,0,1-.87,5H10.87a14.8,14.8,0,0,1,0-10H37.13A14.352,14.352,0,0,1,38,25Z"/><polygon fill="#f5f9fc" points="12 22.808 15.198 22.808 15.198 23.536 14.485 23.536 15.449 26.208 16.438 23.536 15.83 23.536 15.832 22.808 18.013 22.808 18.005 23.531 17.34 23.531 15.914 27.289 14.198 27.289 12.705 23.532 12 23.532 12 22.808"/><polygon fill="#f5f9fc" points="25.883 22.808 29.081 22.808 29.081 23.536 28.367 23.536 29.332 26.208 30.321 23.536 29.713 23.536 29.715 22.808 31.896 22.808 31.888 23.531 31.223 23.531 29.797 27.289 28.081 27.289 26.588 23.532 25.883 23.532 25.883 22.808"/><path fill="#f5f9fc" d="M19.991,22.808a2.135,2.135,0,0,0-2.184,2.178,2.027,2.027,0,0,0,2.237,2.3,2.067,2.067,0,0,0,2.069-2.241A2.053,2.053,0,0,0,19.991,22.808Zm-.031,3.827c-.431,0-.78-.721-.78-1.612s.349-1.612.78-1.612.78.722.78,1.612S20.391,26.635,19.96,26.635Z"/><path fill="#f5f9fc" d="M33.878,22.808a2.135,2.135,0,0,0-2.184,2.178,2.027,2.027,0,0,0,2.237,2.3A2.067,2.067,0,0,0,36,25.048,2.053,2.053,0,0,0,33.878,22.808Zm-.031,3.827c-.431,0-.78-.721-.78-1.612s.349-1.612.78-1.612.78.722.78,1.612S34.278,26.635,33.847,26.635Z"/><path fill="#f5f9fc" d="M26.74,25.168V27.3H22.377v-.736h.711V23.54h-.711V22.8h2.9v.726h-.747v3.017h.74c.535,0,.975-.622.975-1.379Z"/><rect width="7.071" height="8.485" x="33.964" y="6.257" fill="#b6bbbf" transform="rotate(-45 37.5 10.5)"/></g></svg>